<svg xmlns="http://www.w3.org/2000/svg" width="185" height="40" fill="none" viewBox="0 0 185 40"><path fill="#272a33" d="M176.892 28.059a7.75 7.75 0 0 1-3.158-.649 8.1 8.1 0 0 1-2.582-1.797 8.6 8.6 0 0 1-1.745-2.682 8.6 8.6 0 0 1-.624-3.281q0-1.749.624-3.271a8.5 8.5 0 0 1 1.745-2.682 8 8 0 0 1 2.582-1.808 7.75 7.75 0 0 1 3.158-.648q1.686 0 3.158.648a8 8 0 0 1 2.583 1.808 8.3 8.3 0 0 1 1.734 2.682 8.4 8.4 0 0 1 .634 3.27 8.5 8.5 0 0 1-.634 3.282 8.5 8.5 0 0 1-1.734 2.682 8.1 8.1 0 0 1-2.583 1.797 7.75 7.75 0 0 1-3.158.649m-.01-3.065q1.033 0 1.891-.393a4.4 4.4 0 0 0 1.491-1.11 5.2 5.2 0 0 0 .985-1.69 6.4 6.4 0 0 0 .351-2.151q0-1.17-.351-2.142a5.15 5.15 0 0 0-.985-1.7 4.4 4.4 0 0 0-1.491-1.11 4.5 4.5 0 0 0-1.891-.392q-1.012 0-1.881.393a4.45 4.45 0 0 0-1.491 1.11 5.2 5.2 0 0 0-.984 1.7 6.4 6.4 0 0 0-.341 2.14q0 1.17.341 2.152a5.2 5.2 0 0 0 .984 1.69q.635.717 1.491 1.11a4.5 4.5 0 0 0 1.881.393M157.48 27.778V11.561h5.902q1.282 0 2.233.532a3.7 3.7 0 0 1 1.476 1.506q.524.974.524 2.294v.278q0 1.459-.582 2.363-.583.904-1.437 1.32v.418q.777.046 1.204.648.427.58.427 1.553v5.305h-2.563v-4.865q0-.556-.252-.904-.233-.347-.797-.347h-3.572v6.116zm2.563-8.896h3.068q.912 0 1.417-.58.524-.602.524-1.575v-.232q0-.973-.505-1.552-.504-.602-1.436-.602h-3.068zM145.091 27.778V11.561h5.701q1.307 0 2.296.625 1.01.603 1.564 1.714.574 1.112.574 2.642v.324q0 1.506-.593 2.641a4.34 4.34 0 0 1-1.584 1.738q-.99.602-2.257.602h-3.088v5.931zm2.613-8.711h2.831q.93 0 1.504-.602.574-.603.574-1.645v-.232q0-1.042-.574-1.645-.573-.602-1.504-.602h-2.831zM137.96 27.863q-1.609 0-2.839-.663a4.76 4.76 0 0 1-1.926-1.895q-.695-1.233-.695-2.968v-.64h2.581v.64q0 1.439.774 2.17.775.707 2.105.707 1.351 0 2.006-.616.675-.617.675-1.576 0-.662-.338-1.073-.317-.411-.953-.662a9.6 9.6 0 0 0-1.509-.502l-.457-.115q-1.429-.365-2.462-.913-1.013-.57-1.569-1.484-.536-.913-.536-2.374t.596-2.49q.615-1.05 1.708-1.598 1.112-.57 2.601-.57 1.49 0 2.641.593 1.171.571 1.827 1.736.675 1.14.675 2.877v.684h-2.581v-.684q0-.914-.318-1.462a1.76 1.76 0 0 0-.874-.822q-.576-.274-1.37-.274-1.191 0-1.767.525-.556.503-.556 1.393 0 .593.258 1.005.278.41.814.685.536.273 1.37.48l.457.113q1.49.366 2.581.936 1.113.571 1.728 1.507t.616 2.398q0 1.461-.656 2.58-.635 1.095-1.827 1.735-1.171.617-2.78.617M124.297 27.778V14.341h-4.042v-2.78h10.699v2.78h-4.042v13.437zM108.994 27.778V11.561h5.903q1.282 0 2.233.532a3.7 3.7 0 0 1 1.476 1.506q.524.974.524 2.294v.278q0 1.459-.583 2.363-.582.904-1.436 1.32v.418q.776.046 1.203.648.428.58.428 1.553v5.305h-2.563v-4.865q0-.556-.253-.904-.232-.347-.796-.347h-3.573v6.116zm2.563-8.896h3.068q.913 0 1.418-.58.524-.602.524-1.575v-.232q0-.973-.505-1.552-.504-.602-1.437-.602h-3.068zM94.279 27.778l3.638-16.217h4.548l3.639 16.217h-2.69l-.751-3.568H97.72l-.752 3.568zm4.053-6.394h3.718l-1.681-7.9h-.356zM84.744 27.778V11.561h5.7q1.307 0 2.297.625 1.01.603 1.564 1.714.574 1.112.574 2.642v.324q0 1.506-.594 2.641a4.34 4.34 0 0 1-1.583 1.738q-.99.602-2.257.602h-3.088v5.931zm2.613-8.711h2.83q.93 0 1.505-.602.574-.603.574-1.645v-.232q0-1.042-.574-1.645-.574-.602-1.504-.602h-2.831z"/><path fill="#222" d="M40.588 5.663H5.663v16.99h34.925v5.663H0V0h40.588z"/><path fill="#ee753e" d="M50.97 39.643H11.326V33.98h33.98V16.99h-33.98v-5.664h39.642z"/><path fill="#272a33" d="M81.688 14.844H64.869v3.004h16.82v10.21H61.266v-3.603h16.818v-3.004H61.266v-10.21h20.422z"/></svg>